<svg xmlns:xlink="http://www.w3.org/1999/xlink" width="157" height="48" viewBox="0 0 157 48" fill="none" xmlns="http://www.w3.org/2000/svg"><path d="M9.50138 47.9975C9.11907 47.9975 8.74597 47.9926 8.36666 47.9841C7.58086 47.9738 6.79689 47.9054 6.02119 47.7794C5.29789 47.6548 4.59721 47.4231 3.94226 47.0919C3.29331 46.7634 2.70141 46.3327 2.18925 45.8162C1.66967 45.3058 1.2371 44.7139 0.908677 44.0638C0.576634 43.4095 0.34684 42.7082 0.227301 41.9843C0.098209 41.2065 0.0283648 40.4199 0.0183708 39.6315C0.0104152 39.3669 0 38.4857 0 38.4857V9.49828C0 9.49828 0.0110928 8.63068 0.0184336 8.37578C0.0280034 7.5886 0.0974372 6.80329 0.226134 6.02664C0.345903 5.30074 0.575879 4.59741 0.9081 3.94098C1.23532 3.29137 1.66548 2.69898 2.18192 2.18678C2.6978 1.66971 3.29159 1.23677 3.94164 0.903746C4.59509 0.573578 5.29445 0.34349 6.01629 0.22119C6.79453 0.0939067 7.58122 0.0250914 8.36975 0.0153216L9.50201 0H147.047L148.193 0.0159364C148.974 0.0252212 149.754 0.0934226 150.525 0.21996C151.254 0.343794 151.961 0.575487 152.622 0.907422C153.924 1.57857 154.984 2.64038 155.652 3.94404C155.979 4.59594 156.205 5.29354 156.324 6.01316C156.454 6.79618 156.527 7.58767 156.542 8.3813C156.545 8.73667 156.545 9.11839 156.545 9.49828C156.555 9.96885 156.555 10.4167 156.555 10.8683V37.1304C156.555 37.5862 156.555 38.0311 156.545 38.4796C156.545 38.8876 156.545 39.2614 156.54 39.6462C156.526 40.4257 156.454 41.203 156.326 41.972C156.209 42.7012 155.98 43.4079 155.648 44.0676C155.318 44.7106 154.888 45.2974 154.374 45.8064C153.861 46.3257 153.268 46.7589 152.618 47.0895C151.959 47.4233 151.253 47.6559 150.525 47.7794C149.749 47.9061 148.965 47.9745 148.179 47.9841C147.812 47.9926 147.427 47.9975 147.053 47.9975L145.693 48L9.50138 47.9975Z" fill="black"></path><path d="M29.9891 24.376C30.0026 23.3287 30.2808 22.3017 30.7978 21.3908C31.3148 20.4798 32.0539 19.7144 32.9462 19.1659C32.3793 18.3563 31.6315 17.69 30.7621 17.22C29.8927 16.75 28.9257 16.4892 27.9379 16.4583C25.8307 16.2371 23.7879 17.7192 22.7142 17.7192C21.6196 17.7192 19.9664 16.4803 18.1861 16.5169C17.0346 16.5541 15.9123 16.889 14.9287 17.4889C13.945 18.0887 13.1335 18.9332 12.5733 19.9399C10.1464 24.1417 11.9567 30.3168 14.2814 33.7131C15.4445 35.3762 16.8038 37.2339 18.5825 37.1681C20.323 37.0959 20.9731 36.0582 23.0741 36.0582C25.1555 36.0582 25.7654 37.1681 27.5802 37.1262C29.4478 37.0959 30.6246 35.4557 31.7469 33.7768C32.5825 32.5918 33.2256 31.2821 33.6522 29.8963C32.5671 29.4373 31.6412 28.6691 30.9898 27.6875C30.3384 26.7058 29.9903 25.5541 29.9891 24.376V24.376Z" fill="#FFFFFF"></path><path d="M26.5613 14.2247C27.5796 13.0022 28.0813 11.4309 27.9598 9.84451C26.404 10.0079 24.9669 10.7515 23.9348 11.9271C23.4302 12.5013 23.0437 13.1695 22.7975 13.8932C22.5512 14.617 22.45 15.3822 22.4996 16.145C23.2778 16.1531 24.0477 15.9844 24.7512 15.6518C25.4547 15.3191 26.0736 14.8312 26.5613 14.2247Z" fill="#FFFFFF"></path><path d="M43.6461 17.3502V10.921H41.2907V9.86285H47.1593V10.921H44.8089V17.3502H43.6461Z" fill="#FFFFFF"></path><path d="M52.5672 15.8245C52.4156 16.341 52.0874 16.7877 51.6398 17.0865C51.1922 17.3853 50.6538 17.5173 50.1188 17.4593C49.7465 17.4691 49.3765 17.3978 49.0346 17.2503C48.6927 17.1028 48.3869 16.8827 48.1386 16.6052C47.8902 16.3277 47.7052 15.9995 47.5964 15.6433C47.4877 15.2872 47.4577 14.9116 47.5086 14.5427C47.459 14.1727 47.4895 13.7963 47.5981 13.4391C47.7066 13.0819 47.8906 12.7522 48.1376 12.4723C48.3847 12.1923 48.689 11.9688 49.0299 11.8167C49.3709 11.6646 49.7405 11.5875 50.1139 11.5907C51.6861 11.5907 52.6346 12.6648 52.6346 14.4392V14.8282H48.6446V14.8907C48.6271 15.0981 48.6532 15.3068 48.7211 15.5035C48.789 15.7002 48.8973 15.8805 49.0389 16.0329C49.1806 16.1853 49.3526 16.3065 49.5438 16.3885C49.735 16.4706 49.9413 16.5118 50.1494 16.5095C50.4161 16.5415 50.6864 16.4935 50.9257 16.3715C51.1651 16.2495 51.3628 16.0591 51.4937 15.8245L52.5672 15.8245ZM48.6445 14.0036H51.4986C51.5126 13.8139 51.4869 13.6234 51.4229 13.4443C51.359 13.2653 51.2583 13.1015 51.1273 12.9637C50.9963 12.8258 50.8379 12.7169 50.6623 12.6439C50.4868 12.5709 50.2978 12.5354 50.1077 12.5398C49.9149 12.5374 49.7235 12.5736 49.5448 12.6463C49.3661 12.719 49.2038 12.8267 49.0675 12.9631C48.9311 13.0996 48.8235 13.2619 48.7508 13.4406C48.6782 13.6193 48.6421 13.8107 48.6446 14.0036H48.6445ZM49.4435 10.755L50.7462 8.97012H52.0537L50.5954 10.755H49.4435Z" fill="#FFFFFF"></path><path d="M54.1835 9.49397H55.2986V17.3502H54.1835V9.49397Z" fill="#FFFFFF"></path><path d="M61.9073 15.8245C61.7558 16.341 61.4275 16.7877 60.9799 17.0865C60.5323 17.3853 59.9939 17.5173 59.4589 17.4593C59.0866 17.4691 58.7167 17.3978 58.3747 17.2503C58.0328 17.1028 57.727 16.8827 57.4787 16.6052C57.2303 16.3277 57.0454 15.9995 56.9366 15.6433C56.8278 15.2872 56.7978 14.9116 56.8487 14.5427C56.7992 14.1727 56.8297 13.7963 56.9382 13.4391C57.0467 13.0819 57.2307 12.7522 57.4778 12.4723C57.7248 12.1923 58.0291 11.9688 58.3701 11.8167C58.711 11.6646 59.0807 11.5875 59.454 11.5907C61.0262 11.5907 61.9747 12.6648 61.9747 14.4392V14.8282H57.9847V14.8907C57.9672 15.0981 57.9933 15.3068 58.0612 15.5035C58.1291 15.7002 58.2374 15.8805 58.3791 16.0329C58.5207 16.1853 58.6927 16.3065 58.8839 16.3885C59.0752 16.4706 59.2814 16.5118 59.4895 16.5095C59.7562 16.5415 60.0265 16.4935 60.2659 16.3715C60.5052 16.2495 60.7029 16.0591 60.8338 15.8245L61.9073 15.8245ZM57.9847 14.0036H60.8387C60.8527 13.8139 60.827 13.6234 60.763 13.4443C60.6991 13.2653 60.5984 13.1015 60.4674 12.9637C60.3364 12.8258 60.178 12.7169 60.0024 12.6439C59.8269 12.5709 59.6379 12.5354 59.4478 12.5398C59.255 12.5374 59.0635 12.5736 58.8849 12.6463C58.7062 12.719 58.544 12.8267 58.4076 12.9632C58.2712 13.0996 58.1636 13.2619 58.0909 13.4406C58.0183 13.6193 57.9822 13.8107 57.9847 14.0036ZM58.7836 10.755L60.0863 8.97012H61.3938L59.9356 10.755H58.7836Z" fill="#FFFFFF"></path><path d="M67.1718 13.5465C67.1007 13.2535 66.927 12.9956 66.6822 12.8196C66.4374 12.6436 66.1377 12.561 65.8373 12.5869C64.9035 12.5869 64.3325 13.3026 64.3325 14.5066C64.3325 15.7314 64.9085 16.463 65.8373 16.463C66.1348 16.4974 66.4345 16.4221 66.6803 16.251C66.926 16.0799 67.1008 15.825 67.1718 15.5341H68.2563C68.1846 16.1063 67.8922 16.6278 67.4414 16.9874C66.9907 17.3471 66.4173 17.5164 65.8435 17.4593C65.4656 17.4712 65.0898 17.4004 64.7422 17.2519C64.3945 17.1034 64.0836 16.8808 63.831 16.5995C63.5784 16.3183 63.3903 15.9853 63.2799 15.6238C63.1695 15.2623 63.1393 14.881 63.1916 14.5066C63.142 14.135 63.174 13.757 63.2855 13.3991C63.397 13.0411 63.5853 12.7118 63.8372 12.4342C64.0892 12.1565 64.3987 11.9372 64.7441 11.7915C65.0896 11.6458 65.4626 11.5773 65.8373 11.5907C66.4158 11.5374 66.9923 11.712 67.4441 12.0773C67.8959 12.4425 68.1873 12.9697 68.2563 13.5465L67.1718 13.5465Z" fill="#FFFFFF"></path><path d="M69.7366 9.49397H70.8419V12.6078H70.9302C71.0784 12.2824 71.3234 12.0106 71.6317 11.8295C71.94 11.6483 72.2966 11.5667 72.6531 11.5956C72.9266 11.5807 73.2 11.6264 73.4538 11.7293C73.7076 11.8323 73.9356 11.99 74.1215 12.1912C74.3073 12.3924 74.4465 12.6321 74.5291 12.8933C74.6116 13.1544 74.6355 13.4306 74.599 13.7021V17.3502H73.4827V13.9772C73.4827 13.0747 73.0623 12.6176 72.2744 12.6176C72.0827 12.6019 71.89 12.6282 71.7095 12.6948C71.5291 12.7614 71.3654 12.8665 71.2299 13.003C71.0944 13.1394 70.9903 13.3038 70.925 13.4847C70.8597 13.6656 70.8346 13.8585 70.8517 14.0501V17.3502H69.7365L69.7366 9.49397Z" fill="#FFFFFF"></path><path d="M76.0009 15.7522C76.0009 14.7351 76.7583 14.1488 78.1025 14.0654L79.6331 13.9772V13.4895C79.6331 12.8927 79.2385 12.5557 78.4763 12.5557C77.8538 12.5557 77.4224 12.7842 77.2987 13.1837H76.2191C76.333 12.2132 77.246 11.5907 78.5278 11.5907C79.9444 11.5907 80.7427 12.2959 80.7427 13.4895V17.3502H79.6698V16.5561H79.5817C79.4026 16.8409 79.1511 17.0732 78.8529 17.229C78.5548 17.3849 78.2206 17.4588 77.8845 17.4433C77.6472 17.468 77.4075 17.4426 77.1807 17.369C76.9538 17.2953 76.745 17.175 76.5675 17.0156C76.39 16.8563 76.2479 16.6616 76.1504 16.444C76.0528 16.2264 76.0019 15.9907 76.0009 15.7522V15.7522ZM79.6331 15.2694V14.797L78.2533 14.8852C77.4751 14.9373 77.1222 15.202 77.1222 15.7001C77.1222 16.2087 77.5634 16.5046 78.17 16.5046C78.3477 16.5226 78.5273 16.5047 78.6979 16.4519C78.8686 16.3991 79.0269 16.3124 79.1634 16.1972C79.2999 16.082 79.4119 15.9404 79.4925 15.781C79.5732 15.6216 79.621 15.4477 79.6331 15.2694L79.6331 15.2694Z" fill="#FFFFFF"></path><path d="M82.489 11.6997H83.5625V12.5661H83.6458C83.766 12.2654 83.9784 12.0104 84.2525 11.8379C84.5266 11.6654 84.8483 11.5842 85.1715 11.606C85.3385 11.6037 85.5053 11.6194 85.669 11.6526V12.753C85.4643 12.7093 85.2557 12.6867 85.0465 12.6857C84.8625 12.6691 84.6772 12.6913 84.5023 12.7507C84.3275 12.81 84.167 12.9053 84.0311 13.0304C83.8953 13.1555 83.7872 13.3077 83.7136 13.477C83.6401 13.6464 83.6028 13.8293 83.6041 14.014V17.3502H82.489L82.489 11.6997Z" fill="#FFFFFF"></path><path d="M86.6946 17.9157H87.8355C87.9299 18.3256 88.4017 18.5903 89.1541 18.5903C90.0829 18.5903 90.6332 18.1492 90.6332 17.4023V16.3178H90.5498C90.3749 16.6213 90.1195 16.8707 89.8117 17.0381C89.504 17.2056 89.1559 17.2848 88.806 17.2669C87.3637 17.2669 86.4716 16.1517 86.4716 14.46C86.4716 12.7371 87.3735 11.606 88.8171 11.606C89.1757 11.5935 89.5309 11.6798 89.8439 11.8555C90.1568 12.0312 90.4154 12.2896 90.5915 12.6023H90.6797V11.6997H91.7483V17.3967C91.7483 18.6889 90.7361 19.5087 89.1381 19.5087C87.7264 19.5088 86.8135 18.8758 86.6946 17.9157ZM90.654 14.4545C90.654 13.3289 90.0719 12.6078 89.1222 12.6078C88.1627 12.6078 87.6235 13.329 87.6235 14.4545C87.6235 15.5807 88.1627 16.3018 89.1222 16.3018C90.078 16.3018 90.654 15.5862 90.654 14.4545V14.4545Z" fill="#FFFFFF"></path><path d="M98.3031 15.8245C98.1516 16.3409 97.8233 16.7876 97.3758 17.0865C96.9282 17.3853 96.3898 17.5173 95.8547 17.4592C95.4825 17.4691 95.1125 17.3978 94.7706 17.2503C94.4286 17.1028 94.1229 16.8827 93.8745 16.6052C93.6262 16.3277 93.4412 15.9995 93.3324 15.6433C93.2236 15.2872 93.1936 14.9116 93.2446 14.5427C93.195 14.1727 93.2255 13.7963 93.334 13.4391C93.4425 13.0819 93.6266 12.7522 93.8736 12.4722C94.1206 12.1923 94.4249 11.9687 94.7659 11.8166C95.1068 11.6646 95.4765 11.5875 95.8498 11.5907C97.422 11.5907 98.3705 12.6648 98.3705 14.4392V14.8282H94.3805V14.8907C94.3631 15.0981 94.3891 15.3068 94.457 15.5035C94.525 15.7002 94.6332 15.8805 94.7749 16.0329C94.9166 16.1853 95.0886 16.3064 95.2798 16.3885C95.471 16.4706 95.6773 16.5118 95.8854 16.5095C96.1521 16.5415 96.4224 16.4934 96.6617 16.3715C96.9011 16.2495 97.0988 16.0591 97.2297 15.8244L98.3031 15.8245ZM94.3805 14.0035H97.2345C97.2486 13.8139 97.2228 13.6234 97.1589 13.4443C97.0949 13.2652 96.9942 13.1015 96.8632 12.9637C96.7322 12.8258 96.5739 12.7169 96.3983 12.6439C96.2227 12.5709 96.0338 12.5354 95.8436 12.5398C95.6508 12.5374 95.4594 12.5736 95.2807 12.6463C95.1021 12.719 94.9398 12.8267 94.8034 12.9632C94.6671 13.0996 94.5594 13.2619 94.4868 13.4406C94.4142 13.6193 94.378 13.8107 94.3805 14.0035H94.3805Z" fill="#FFFFFF"></path><path d="M99.868 11.6997H100.942V12.5661H101.025C101.145 12.2654 101.357 12.0104 101.632 11.8379C101.906 11.6654 102.227 11.5842 102.551 11.606C102.718 11.6037 102.884 11.6194 103.048 11.6526V12.753C102.843 12.7093 102.635 12.6867 102.426 12.6857C102.242 12.6691 102.056 12.6913 101.881 12.7506C101.707 12.81 101.546 12.9053 101.41 13.0304C101.274 13.1555 101.166 13.3076 101.093 13.477C101.019 13.6464 100.982 13.8293 100.983 14.014V17.3502H99.868V11.6997Z" fill="#FFFFFF"></path><path d="M107.066 14.5225C107.066 12.7371 107.984 11.606 109.412 11.606C109.765 11.5897 110.115 11.6743 110.422 11.8498C110.729 12.0254 110.979 12.2846 111.144 12.5973H111.228V9.49397H112.343V17.3502H111.274V16.4574H111.186C111.008 16.768 110.749 17.024 110.436 17.1978C110.123 17.3716 109.769 17.4565 109.412 17.4433C107.974 17.4433 107.066 16.3122 107.066 14.5225ZM108.218 14.5225C108.218 15.721 108.783 16.4421 109.728 16.4421C110.668 16.4421 111.249 15.7106 111.249 14.5274C111.249 13.3498 110.662 12.6078 109.728 12.6078C108.789 12.6078 108.218 13.3339 108.218 14.5225H108.218Z" fill="#FFFFFF"></path><path d="M113.85 15.7522C113.85 14.7351 114.607 14.1488 115.952 14.0654L117.482 13.9772V13.4895C117.482 12.8927 117.088 12.5557 116.325 12.5557C115.703 12.5557 115.272 12.7842 115.148 13.1837H114.068C114.182 12.2132 115.095 11.5907 116.377 11.5907C117.794 11.5907 118.593 12.2959 118.593 13.4895V17.3502H117.519V16.5561H117.431C117.252 16.8409 117 17.0732 116.702 17.229C116.404 17.3849 116.07 17.4588 115.734 17.4433C115.496 17.468 115.257 17.4426 115.03 17.369C114.803 17.2953 114.594 17.175 114.417 17.0156C114.239 16.8563 114.097 16.6616 114 16.444C113.902 16.2263 113.851 15.9907 113.85 15.7522ZM117.482 15.2694V14.797L116.102 14.8852C115.324 14.9373 114.971 15.202 114.971 15.7001C114.971 16.2087 115.413 16.5046 116.019 16.5046C116.197 16.5226 116.376 16.5047 116.547 16.4518C116.718 16.399 116.876 16.3124 117.013 16.1972C117.149 16.0819 117.261 15.9404 117.342 15.781C117.422 15.6216 117.47 15.4476 117.482 15.2694V15.2694Z" fill="#FFFFFF"></path><path d="M120.339 11.6998H121.412V12.5974H121.496C121.637 12.275 121.875 12.0047 122.178 11.8243C122.48 11.6438 122.831 11.5622 123.182 11.5907C123.457 11.57 123.733 11.6115 123.989 11.712C124.246 11.8125 124.477 11.9695 124.665 12.1713C124.853 12.3731 124.993 12.6146 125.075 12.8779C125.156 13.1412 125.178 13.4196 125.138 13.6923V17.3501H124.022V13.9723C124.022 13.0643 123.628 12.6127 122.803 12.6127C122.616 12.604 122.43 12.6358 122.257 12.7058C122.084 12.7759 121.928 12.8826 121.799 13.0186C121.671 13.1546 121.574 13.3167 121.514 13.4938C121.455 13.6709 121.434 13.8588 121.454 14.0446V17.3502H120.339V11.6998Z" fill="#FFFFFF"></path><path d="M128.928 11.5907C130.199 11.5907 131.029 12.1819 131.138 13.1782H130.069C129.966 12.7634 129.56 12.4987 128.928 12.4987C128.305 12.4987 127.832 12.7941 127.832 13.2352C127.832 13.5728 128.118 13.7854 128.731 13.9257L129.669 14.1432C130.744 14.3926 131.247 14.8546 131.247 15.6848C131.247 16.7485 130.256 17.4593 128.907 17.4593C127.563 17.4593 126.686 16.852 126.587 15.8509H127.704C127.8 16.0892 127.973 16.2882 128.196 16.4161C128.419 16.544 128.678 16.5933 128.933 16.5561C129.627 16.5561 130.121 16.2449 130.121 15.7933C130.121 15.4563 129.857 15.2382 129.29 15.1034L128.305 14.8748C127.231 14.6205 126.733 14.1383 126.733 13.2977C126.733 12.2959 127.651 11.5907 128.928 11.5907Z" fill="#FFFFFF"></path><path d="M43.0725 21.573H45.4057V37.1561H43.0725V21.573Z" fill="#FFFFFF"></path><path d="M48.2169 27.2749L49.4913 21.573H51.7584L50.2143 27.2749H48.2169Z" fill="#FFFFFF"></path><path d="M60.5753 32.9443H54.6357L53.2093 37.1561H50.6935L56.3194 21.573H58.9333L64.5592 37.1561H62.0005L60.5753 32.9443ZM55.2509 31.0008H59.959L57.6381 24.1648H57.5731L55.2509 31.0008Z" fill="#FFFFFF"></path><path d="M76.708 31.4763C76.708 35.0068 74.8184 37.275 71.9668 37.275C71.2445 37.3128 70.5261 37.1464 69.8939 36.7949C69.2617 36.4434 68.7413 35.9209 68.3923 35.2874H68.3383V40.9145H66.0063V25.7946H68.2636V27.6842H68.3064C68.6715 27.0537 69.2007 26.5339 69.8377 26.1803C70.4747 25.8266 71.1957 25.6522 71.9239 25.6757C74.8074 25.6757 76.708 27.955 76.708 31.4763ZM74.3111 31.4763C74.3111 29.1756 73.1224 27.6634 71.3088 27.6634C69.527 27.6634 68.3285 29.2074 68.3285 31.4763C68.3285 33.7654 69.527 35.2984 71.3088 35.2984C73.1224 35.2984 74.3111 33.7973 74.3111 31.4763V31.4763Z" fill="#FFFFFF"></path><path d="M89.2117 31.4763C89.2117 35.0068 87.3221 37.275 84.4705 37.275C83.7482 37.3128 83.0298 37.1464 82.3976 36.7949C81.7654 36.4434 81.245 35.9209 80.896 35.2874H80.842V40.9145H78.5107V25.7946H80.7673V27.6842H80.8102C81.1753 27.0537 81.7045 26.5339 82.3415 26.1803C82.9785 25.8266 83.6994 25.6522 84.4276 25.6757C87.3111 25.6757 89.2117 27.955 89.2117 31.4763ZM86.8148 31.4763C86.8148 29.1756 85.6261 27.6634 83.8125 27.6634C82.0307 27.6634 80.8322 29.2074 80.8322 31.4763C80.8322 33.7654 82.0307 35.2984 83.8125 35.2984C85.6261 35.2984 86.8148 33.7973 86.8148 31.4763V31.4763Z" fill="#FFFFFF"></path><path d="M97.476 32.8145C97.6487 34.3597 99.1499 35.3743 101.201 35.3743C103.167 35.3743 104.581 34.3597 104.581 32.9664C104.581 31.7569 103.728 31.0327 101.709 30.5363L99.6891 30.0492C96.8277 29.3581 95.4993 28.02 95.4993 25.8485C95.4993 23.1599 97.8423 21.3132 101.169 21.3132C104.462 21.3132 106.719 23.1599 106.795 25.8485H104.441C104.3 24.2935 103.015 23.3548 101.136 23.3548C99.2577 23.3548 97.9722 24.3045 97.9722 25.6868C97.9722 26.7884 98.7933 27.4367 100.802 27.9329L102.519 28.3545C105.716 29.1106 107.044 30.3954 107.044 32.6747C107.044 35.59 104.722 37.4159 101.028 37.4159C97.5727 37.4159 95.2395 35.6329 95.0888 32.8144L97.476 32.8145Z" fill="#FFFFFF"></path><path d="M112.078 23.106V25.7946H114.239V27.6413H112.078V33.9051C112.078 34.878 112.511 35.3315 113.46 35.3315C113.717 35.327 113.973 35.309 114.228 35.2775V37.1132C113.801 37.193 113.367 37.2291 112.932 37.221C110.632 37.221 109.735 36.3571 109.735 34.1538V27.6413H108.083V25.7946H109.735V23.106H112.078Z" fill="#FFFFFF"></path><path d="M115.488 31.4763C115.488 27.9011 117.594 25.6549 120.877 25.6549C124.171 25.6549 126.266 27.9011 126.266 31.4763C126.266 35.0607 124.182 37.2971 120.877 37.2971C117.573 37.2971 115.488 35.0607 115.488 31.4763ZM123.89 31.4763C123.89 29.0236 122.766 27.5764 120.877 27.5764C118.987 27.5764 117.865 29.0346 117.865 31.4763C117.865 33.9382 118.987 35.3744 120.877 35.3744C122.766 35.3744 123.89 33.9382 123.89 31.4763H123.89Z" fill="#FFFFFF"></path><path d="M128.189 25.7946H130.413V27.7283H130.467C130.617 27.1244 130.971 26.5906 131.469 26.2168C131.966 25.843 132.578 25.652 133.2 25.6757C133.468 25.6748 133.736 25.704 133.999 25.7627V27.9439C133.659 27.8403 133.305 27.7927 132.951 27.803C132.612 27.7893 132.274 27.8491 131.961 27.9782C131.647 28.1074 131.365 28.3029 131.134 28.5512C130.903 28.7996 130.729 29.095 130.623 29.4172C130.517 29.7393 130.482 30.0806 130.521 30.4175V37.1561H128.189L128.189 25.7946Z" fill="#FFFFFF"></path><path d="M144.749 33.8193C144.436 35.8817 142.427 37.2971 139.857 37.2971C136.552 37.2971 134.501 35.0827 134.501 31.5302C134.501 27.9661 136.563 25.6549 139.759 25.6549C142.902 25.6549 144.879 27.8141 144.879 31.2594V32.0584H136.855V32.1993C136.818 32.6174 136.87 33.0386 137.009 33.435C137.147 33.8313 137.368 34.1937 137.657 34.498C137.946 34.8024 138.296 35.0417 138.685 35.2002C139.074 35.3587 139.492 35.4327 139.911 35.4173C140.462 35.4689 141.015 35.3413 141.488 35.0534C141.961 34.7655 142.328 34.3326 142.535 33.8193L144.749 33.8193ZM136.866 30.4285H142.546C142.567 30.0526 142.51 29.6763 142.379 29.3234C142.247 28.9704 142.044 28.6484 141.783 28.3776C141.521 28.1068 141.206 27.893 140.858 27.7496C140.51 27.6063 140.136 27.5364 139.759 27.5445C139.379 27.5423 139.003 27.6153 138.652 27.7593C138.3 27.9033 137.981 28.1155 137.712 28.3837C137.443 28.6518 137.23 28.9705 137.084 29.3215C136.939 29.6725 136.865 30.0487 136.866 30.4285V30.4285Z" fill="#FFFFFF"></path></svg>