<svg xmlns:xlink="http://www.w3.org/1999/xlink" xmlns="http://www.w3.org/2000/svg" width="146" height="128" viewBox="0 0 146 128" fill="none">
<path d="M117.607 16.009C119.317 15.8657 120.903 17.4494 120.757 19.1594C120.546 21.5957 117.514 76.9542 99.7976 94.6711C82.8191 111.65 62.8117 107.666 49.7463 98.2733C49.5884 98.1591 49.4111 98.0231 49.2168 97.8676L37.4387 109.629C34.592 112.473 29.9794 112.473 27.1351 109.629C24.2883 106.782 24.2883 102.169 27.1351 99.325L38.8985 87.5494C38.7407 87.3526 38.6046 87.1753 38.4905 87.0174C29.1001 73.9545 25.1142 53.9471 42.0926 36.9662C59.8095 19.2493 115.168 16.2155 117.607 16.009Z" fill="#1E8F4E"/>
<path d="M87.1703 83.812C89.7226 83.812 91.5499 82.1008 91.5499 79.6935C91.5499 78.8234 91.4049 78.0403 90.9988 76.9091L79.5133 45.7589C78.2661 42.3365 76.2358 40.8282 72.8134 40.8282C69.5069 40.8282 67.4476 42.3945 66.2295 45.7879L54.8019 76.9091C54.4249 77.9823 54.2219 78.9684 54.2219 79.6935C54.2219 82.2168 55.9331 83.812 58.6595 83.812C60.9798 83.812 62.285 82.6519 63.0971 79.8675L65.3014 73.3416H80.4124L82.6167 79.9545C83.3998 82.6809 84.705 83.812 87.1703 83.812ZM78.3821 66.5547H67.2156L72.6393 49.4134H72.8424L78.3821 66.5547Z" fill="white"/>
</svg>