<svg xmlns:xlink="http://www.w3.org/1999/xlink" width="80" height="49" viewBox="0 0 80 49" fill="none" xmlns="http://www.w3.org/2000/svg" class="jow_prod__sc-a0a47d06-7 HYbvw"><title>Jow</title><path fill-rule="evenodd" clip-rule="evenodd" d="M11.5443 7.68365C13.664 7.68365 15.3862 5.96146 15.3862 3.80398C15.3862 1.66542 13.7018 0 11.5443 0C9.40579 0 7.70251 1.70327 7.70251 3.8229C7.70251 5.94253 9.44364 7.68365 11.5443 7.68365ZM57.722 32.9867C58.2898 33.0435 58.8197 32.6839 59.0089 32.1351C59.9931 29.1828 63.1536 19.5498 63.1536 19.5498C63.1536 19.5498 66.6547 29.2395 68.3012 33.7437C68.4905 34.2547 68.9636 34.5954 69.4935 34.5765C70.2127 34.5575 71.9917 34.5008 73.0893 34.4629C73.6192 34.444 74.0924 34.0844 74.2249 33.5545C74.5823 32.2402 75.2903 29.6117 75.9982 26.9832C76.5646 24.8804 77.1309 22.7776 77.5178 21.3477C78.0667 19.2848 79.3536 14.5914 79.9592 12.3961C80.1295 11.7337 79.751 11.0713 79.1076 10.882C78.5386 10.7147 77.3779 10.4142 76.4103 10.1637L76.0417 10.0682C75.3982 9.89792 74.7169 10.2953 74.5466 10.9388C74.4648 11.2339 74.371 11.5718 74.2704 11.934L74.2606 11.9695L74.2596 11.9729L74.259 11.9751C73.826 13.5347 73.2726 15.5278 73.0136 16.5028C72.3702 18.8496 70.8562 24.319 70.8562 24.319C70.8562 24.3397 69.7708 21.2125 68.6153 17.8827L68.6143 17.88C67.6612 15.1338 66.6606 12.2504 66.1816 10.882C66.0113 10.39 65.5571 10.0493 65.0272 10.0493C64.7255 10.0493 64.2087 10.0456 63.6327 10.0415H63.6326H63.6325C62.9077 10.0363 62.0892 10.0304 61.4882 10.0304C60.9582 10.0304 60.4851 10.371 60.3148 10.882L57.0407 20.8746L55.186 10.0493C55.0725 9.38693 54.429 8.93273 53.7666 9.04628C53.4551 9.1047 52.9232 9.19817 52.3383 9.30094L52.3378 9.30104L52.3376 9.30107L52.3372 9.30114C51.7855 9.39808 51.1869 9.50328 50.6818 9.59511C50.0194 9.70866 49.5652 10.3521 49.6788 11.0145C49.9627 12.6232 52.5176 27.7255 53.18 31.643C53.2746 32.1919 53.7288 32.6082 54.2776 32.665C54.9589 32.7407 56.6244 32.8921 57.722 32.9867ZM24.4893 28.3122C27.101 32.2486 30.9617 33.9141 35.9201 34.1222C36.0584 34.1041 36.2092 34.0859 36.3701 34.0665L36.3702 34.0665C37.0461 33.9849 37.8992 33.882 38.74 33.668C44.3608 32.419 48.6568 27.858 48.619 21.518C48.5811 16.5596 45.7423 12.2068 41.1814 10.3143C37.5856 8.81918 33.933 8.72455 30.3183 10.2007C26.2683 11.8661 23.6187 14.8185 22.8049 19.1902C22.1993 22.4264 22.6346 25.5302 24.4893 28.3122ZM28.5393 21.6884C28.5204 17.5437 31.4538 14.5914 35.5795 14.5725C39.6295 14.5535 42.6197 17.5059 42.6386 21.5559C42.6386 25.6816 39.7052 28.6907 35.6173 28.7096C31.5484 28.7285 28.5582 25.7762 28.5393 21.6884ZM0 36.7717C0.227103 30.9617 2.80094 25.6626 7.83506 21.5937C8.93272 20.7042 10.2953 19.7011 11.9797 18.9252L11.5255 16.8434C11.5255 16.8434 9.1409 18.3385 5.96146 18.717C5.33692 18.7927 4.75024 18.3953 4.59884 17.7897L3.91753 14.9698C3.7472 14.2696 4.22033 13.5694 4.92057 13.4558C7.63115 13.0096 8.8117 12.3901 11.7397 10.8537C12.1644 10.6308 12.6259 10.3887 13.1341 10.125C14.1182 9.61398 15.3105 10.1439 15.5944 11.2226L17.1274 17.0895C17.1274 17.0895 18.982 16.6542 19.6633 16.5217C20.2879 16.4081 20.8935 16.8624 20.9313 17.4869C20.9759 18.0214 21.0246 18.6649 21.0696 19.2596L21.0697 19.2598C21.1203 19.9284 21.1662 20.5351 21.1963 20.8556C21.2341 21.3855 20.9124 21.8586 20.4014 21.9911L18.3953 22.521C18.3953 22.521 19.1524 28.1418 19.3416 30.7156C19.5876 34.16 19.3984 37.5855 18.2818 40.8785C16.7867 45.307 13.5505 48.089 8.68669 48.108C5.45047 48.1269 3.14159 46.4615 1.55187 43.7362C0.416355 41.7869 0 39.6484 0 36.7717ZM13.2288 24.5839C13.2288 24.5839 12.8124 24.8488 12.415 25.1138C9.2166 27.3091 7.04019 30.2614 6.03716 34.0276C5.5451 35.9201 5.318 37.8315 5.88575 39.7619C6.33996 41.3327 7.43763 42.279 8.93272 42.4304C10.3143 42.5628 11.639 41.7869 12.3771 40.4432C13.0206 39.2888 13.3423 38.0397 13.5505 36.7339C13.9858 34.0086 13.8911 31.2645 13.6262 28.5392C13.5126 27.3091 13.2288 24.5839 13.2288 24.5839Z" class="jow_prod__sc-a0a47d06-8 hGPWkA" fill="#ffffff"></path></svg>