<svg xmlns:xlink="http://www.w3.org/1999/xlink" viewBox="0 0 59 32" xmlns="http://www.w3.org/2000/svg" class="jow_prod__sc-d4b5e0e6-2 bvTxbb" width="59"  height="32" ><path fill-rule="evenodd" clip-rule="evenodd" d="M34.8661 2.47131C35.0777 2.46254 35.2901 2.43853 35.5019 2.3987C35.6855 2.36497 35.8687 2.34299 36.0503 2.33218C36.8112 2.14502 37.5116 1.77307 38.0674 1.24019C39.7789 -0.413398 42.7019 -0.413398 44.4023 1.24019C45.4248 2.22047 46.9363 2.66605 48.4145 2.3987C50.8818 1.96302 53.2491 3.48789 53.538 5.71579C53.7158 7.04262 54.6494 8.20113 56.0164 8.75563C58.3059 9.69629 59.2061 12.1717 57.9725 14.1224C57.239 15.2908 57.239 16.7166 57.9725 17.885C59.2061 19.8456 58.3059 22.3111 56.0164 23.2518C54.6494 23.8162 53.7158 24.9648 53.538 26.2916C53.2491 28.5195 50.8818 30.0444 48.4145 29.6087C46.9363 29.3513 45.4248 29.787 44.4023 30.7672C42.6908 32.4109 39.7789 32.4109 38.0674 30.7672C37.5166 30.2392 36.824 29.8663 36.0711 29.6764C35.8826 29.6661 35.6926 29.6437 35.5019 29.6087C35.2403 29.5613 34.9777 29.5374 34.7171 29.5361C34.4969 29.5448 34.2757 29.5689 34.0552 29.6087C33.9106 29.6343 33.7664 29.6531 33.6228 29.6654C32.876 29.8491 32.188 30.2248 31.644 30.7672C29.9983 32.4109 27.1984 32.4109 25.5527 30.7672C24.8009 30.0176 23.7741 29.5807 22.6969 29.5361C21.5589 29.5424 20.4636 29.9786 19.6726 30.7672C18.0269 32.4109 15.227 32.4109 13.5813 30.7672C12.5981 29.787 11.1448 29.3414 9.72348 29.6087C7.35107 30.0444 5.07485 28.5195 4.797 26.2916C4.62601 24.9648 3.72835 23.8063 2.41391 23.2518C0.212486 22.3111 -0.653121 19.8357 0.533082 17.885C1.23839 16.7166 1.23839 15.2908 0.533082 14.1224C-0.653121 12.1618 0.212486 9.69629 2.41391 8.75563C3.72835 8.19123 4.62601 7.04262 4.797 5.71579C5.07485 3.48789 7.35107 1.96302 9.72348 2.3987C11.1448 2.65615 12.5981 2.22047 13.5813 1.2402C15.227 -0.413398 18.0376 -0.413398 19.6726 1.2402C20.4244 1.98982 21.4512 2.42676 22.5284 2.47133C23.6665 2.46499 24.7618 2.02883 25.5527 1.24019C27.1984 -0.413398 30.009 -0.413398 31.644 1.24019C32.1821 1.77671 32.8611 2.15306 33.5985 2.34002C33.7501 2.35226 33.9025 2.37172 34.0552 2.3987C34.3255 2.44577 34.5969 2.46967 34.8661 2.47131Z" fill="#0064D1"></path></svg>