<svg xmlns:xlink="http://www.w3.org/1999/xlink" xmlns="http://www.w3.org/2000/svg" width="240" height="131" viewBox="0 0 240 131" fill="none">
<g clip-path="url(#clip0_12818_311)">
<path fill-rule="evenodd" clip-rule="evenodd" d="M22.2418 0.875H217.758C230.08 0.875 240 10.7948 240 23.1168V101.248C240 113.57 230.08 123.49 217.758 123.49H22.2418C9.91984 123.49 0 113.57 0 101.248V23.1168C0 10.7948 9.91984 0.875 22.2418 0.875Z" fill="white"/>
<mask id="mask0_12818_311" style="mask-type:alpha" maskUnits="userSpaceOnUse" x="10" y="45" width="218" height="72">
<path d="M10 61C10 52.1634 17.1634 45 26 45H212C220.837 45 228 52.1634 228 61V101C228 109.837 220.837 117 212 117H26C17.1634 117 10 109.837 10 101V61Z" fill="#D9D9D9"/>
</mask>
<g mask="url(#mask0_12818_311)">
<path fill-rule="evenodd" clip-rule="evenodd" d="M187 42H236V121H187V42Z" fill="#E63E11"/>
<path fill-rule="evenodd" clip-rule="evenodd" d="M10 45H81V118H10V45Z" fill="#038141"/>
<path d="M26.5163 64.3705H33.3607L45.3386 97.2055H37.5692L35.0256 89.8523H24.8052L22.3078 97.2055H14.5385L26.5163 64.3705ZM33.777 84.6264L29.9385 73.0186L26.0076 84.6264H33.777Z" fill="white" fill-opacity="0.446064"/>
<path d="M220.883 90.546V97.2055H197.806V64.3705H220.467V71.03H205.391V77.412H218.34V83.5628H205.391V90.546H220.883Z" fill="white" fill-opacity="0.446064"/>
<path fill-rule="evenodd" clip-rule="evenodd" d="M56.3405 45.0734H101.186V117.502H56.3405V45.0734Z" fill="#EE8100"/>
<path fill-rule="evenodd" clip-rule="evenodd" d="M145 43H189V120H145V43Z" fill="#EE8100"/>
<path d="M152.681 97.2055V64.3705H164.937C167.65 64.3705 170.024 64.8021 172.058 65.6654C174.093 66.5287 175.789 67.7002 177.146 69.1801C178.533 70.66 179.566 72.402 180.244 74.406C180.953 76.3791 181.308 78.4911 181.308 80.7417C181.308 83.239 180.922 85.5051 180.152 87.54C179.381 89.544 178.271 91.2705 176.822 92.7196C175.404 94.1378 173.677 95.2477 171.642 96.0493C169.638 96.8201 167.403 97.2055 164.937 97.2055H152.681ZM173.585 80.7417C173.585 79.2927 173.384 77.9824 172.983 76.8108C172.613 75.6084 172.058 74.5755 171.319 73.7123C170.579 72.849 169.669 72.1861 168.59 71.7237C167.511 71.2612 166.293 71.03 164.937 71.03H160.266V90.546H164.937C166.324 90.546 167.557 90.2993 168.636 89.806C169.715 89.3127 170.609 88.6345 171.319 87.7712C172.058 86.8771 172.613 85.8443 172.983 84.6727C173.384 83.4703 173.585 82.16 173.585 80.7417Z" fill="white" fill-opacity="0.446064"/>
<path fill-rule="evenodd" clip-rule="evenodd" d="M97 42H145V121H97V42Z" fill="#FECB02"/>
<path fill-rule="evenodd" clip-rule="evenodd" d="M100 43H55V120H100V43Z" fill="#85BB2F"/>
<path d="M106.012 80.233C106.012 78.2598 106.382 76.3021 107.122 74.3597C107.862 72.3865 108.941 70.6292 110.359 69.0876C111.777 67.5461 113.504 66.2974 115.538 65.3417C117.573 64.3859 119.886 63.908 122.475 63.908C125.559 63.908 128.225 64.5709 130.476 65.8966C132.758 67.2223 134.453 68.9489 135.563 71.0762L129.736 75.1459C129.366 74.2826 128.888 73.5735 128.303 73.0186C127.748 72.4328 127.131 71.9703 126.453 71.6312C125.774 71.2612 125.081 71.0146 124.372 70.8912C123.662 70.7371 122.969 70.66 122.29 70.66C120.841 70.66 119.577 70.9529 118.498 71.5387C117.419 72.1245 116.525 72.8798 115.816 73.8048C115.107 74.7297 114.583 75.7779 114.244 76.9495C113.904 78.1211 113.735 79.3081 113.735 80.5105C113.735 81.8054 113.935 83.054 114.336 84.2565C114.737 85.4589 115.307 86.5225 116.047 87.4475C116.818 88.3724 117.727 89.1123 118.776 89.6673C119.855 90.1914 121.057 90.4535 122.383 90.4535C123.061 90.4535 123.755 90.3764 124.464 90.2222C125.204 90.0373 125.898 89.7752 126.545 89.4361C127.223 89.0661 127.84 88.6036 128.395 88.0487C128.95 87.4629 129.397 86.7538 129.736 85.9213L135.933 89.5748C135.44 90.7772 134.7 91.8563 133.713 92.8121C132.758 93.7678 131.648 94.5694 130.384 95.2169C129.12 95.8643 127.778 96.3576 126.36 96.6967C124.942 97.0359 123.555 97.2055 122.198 97.2055C119.824 97.2055 117.635 96.7276 115.631 95.7718C113.658 94.7852 111.947 93.4903 110.498 91.8871C109.079 90.2839 107.969 88.4649 107.168 86.43C106.397 84.3952 106.012 82.3295 106.012 80.233Z" fill="white" fill-opacity="0.446064"/>
<path d="M93.1325 88.7886C93.1325 90.2068 92.8396 91.4401 92.2538 92.4883C91.668 93.5366 90.8664 94.4153 89.849 95.1244C88.8316 95.8027 87.6446 96.3268 86.288 96.6968C84.9315 97.0359 83.4978 97.2055 81.9871 97.2055H65.9858V64.3705H84.2532C85.3939 64.3705 86.4268 64.6171 87.3517 65.1104C88.2766 65.6037 89.0628 66.2512 89.7103 67.0528C90.3577 67.8236 90.851 68.7177 91.1902 69.7351C91.5601 70.7217 91.7451 71.7391 91.7451 72.7873C91.7451 74.3597 91.3443 75.8396 90.5427 77.227C89.7719 78.6144 88.6004 79.6627 87.028 80.3718C88.9087 80.9267 90.3886 81.9133 91.4676 83.3315C92.5776 84.7498 93.1325 86.5688 93.1325 88.7886ZM85.4094 87.2625C85.4094 86.2451 85.1165 85.3818 84.5307 84.6727C83.9449 83.9636 83.2049 83.609 82.3108 83.609H73.5703V90.7772H81.9871C82.9737 90.7772 83.7907 90.4535 84.4382 89.806C85.0856 89.1586 85.4094 88.3107 85.4094 87.2625ZM73.5703 70.845V77.6432H81.0159C81.8484 77.6432 82.5883 77.3657 83.2358 76.8108C83.8832 76.2558 84.2069 75.3926 84.2069 74.221C84.2069 73.1419 83.914 72.3095 83.3283 71.7237C82.7733 71.1379 82.095 70.845 81.2934 70.845H73.5703Z" fill="white" fill-opacity="0.446064"/>
</g>
<path d="M19.2679 21.0289V30.5193H15.4343V13.9227H18.4263L26.1636 23.6703V13.9227H29.9972V30.5193H26.9116L19.2679 21.0289Z" fill="#7D7D7D"/>
<path d="M40.3237 27.2468C40.9782 27.2468 41.5314 27.1143 41.9833 26.8494C42.4352 26.5689 42.8015 26.2026 43.082 25.7507C43.3625 25.2988 43.5573 24.7845 43.6664 24.2079C43.791 23.6158 43.8534 23.0158 43.8534 22.408V13.9227H47.6869V22.408C47.6869 23.5612 47.5389 24.6365 47.2428 25.6338C46.9623 26.6312 46.5182 27.5039 45.9104 28.2519C45.3182 28.9999 44.5546 29.5921 43.6196 30.0284C42.7002 30.4492 41.6015 30.6596 40.3237 30.6596C38.999 30.6596 37.8692 30.4336 36.9342 29.9817C35.9992 29.5298 35.2356 28.9298 34.6434 28.1818C34.0668 27.4182 33.6383 26.5377 33.3578 25.5403C33.0928 24.543 32.9604 23.4989 32.9604 22.408V13.9227H36.794V22.408C36.794 23.047 36.8563 23.6547 36.981 24.2313C37.1056 24.8079 37.3082 25.3222 37.5887 25.7741C37.8692 26.226 38.2277 26.5844 38.664 26.8494C39.1159 27.1143 39.6691 27.2468 40.3237 27.2468Z" fill="#7D7D7D"/>
<path d="M63.2806 17.2888H58.2315V30.5193H54.3979V17.2888H49.3254V13.9227H63.2806V17.2888Z" fill="#7D7D7D"/>
<path d="M65.1528 30.5193V13.9227H72.633C73.4122 13.9227 74.129 14.0864 74.7835 14.4136C75.4536 14.7409 76.0302 15.1694 76.5133 15.6993C76.9964 16.2291 77.3704 16.8291 77.6353 17.4992C77.9158 18.1693 78.0561 18.8472 78.0561 19.5328C78.0561 20.0471 77.9938 20.5458 77.8691 21.0289C77.7444 21.4964 77.5652 21.9405 77.3314 22.3613C77.0977 22.782 76.8094 23.1638 76.4666 23.5067C76.1393 23.8339 75.7653 24.1144 75.3445 24.3482L78.9911 30.5193H74.6667L71.4876 25.1663H68.9864V30.5193H65.1528ZM68.9864 21.8236H72.4927C72.9447 21.8236 73.3342 21.6133 73.6615 21.1925C73.9888 20.7562 74.1524 20.2029 74.1524 19.5328C74.1524 18.8472 73.9654 18.3017 73.5914 17.8966C73.2174 17.4914 72.8122 17.2888 72.3759 17.2888H68.9864V21.8236Z" fill="#7D7D7D"/>
<path d="M80.8126 30.5193V13.9227H84.6461V30.5193H80.8126Z" fill="#7D7D7D"/>
<path d="M87.5162 25.7741V22.408H94.7159V25.7741H87.5162Z" fill="#7D7D7D"/>
<path d="M107.526 18.7848C107.479 18.7225 107.316 18.6056 107.035 18.4342C106.755 18.2628 106.404 18.0836 105.983 17.8966C105.562 17.7096 105.103 17.5459 104.604 17.4057C104.105 17.2654 103.607 17.1953 103.108 17.1953C101.737 17.1953 101.051 17.655 101.051 18.5744C101.051 18.8549 101.121 19.0887 101.261 19.2757C101.417 19.4627 101.635 19.6341 101.916 19.79C102.212 19.9302 102.578 20.0627 103.015 20.1874C103.451 20.312 103.957 20.4523 104.534 20.6081C105.329 20.8263 106.046 21.0678 106.684 21.3328C107.323 21.5821 107.861 21.9016 108.297 22.2911C108.749 22.6652 109.092 23.1249 109.326 23.6703C109.575 24.2157 109.7 24.8702 109.7 25.6338C109.7 26.5689 109.521 27.3636 109.162 28.0181C108.819 28.6571 108.36 29.1791 107.783 29.5843C107.207 29.9739 106.544 30.2622 105.796 30.4492C105.048 30.6206 104.277 30.7063 103.482 30.7063C102.874 30.7063 102.251 30.6596 101.612 30.5661C100.973 30.4726 100.35 30.3401 99.742 30.1687C99.1342 29.9817 98.542 29.7635 97.9654 29.5142C97.4044 29.2648 96.8824 28.9765 96.3993 28.6493L98.0823 25.3066C98.1446 25.3845 98.3472 25.5325 98.6901 25.7507C99.0329 25.9689 99.4537 26.1871 99.9524 26.4052C100.467 26.6234 101.035 26.8182 101.659 26.9896C102.282 27.161 102.913 27.2467 103.552 27.2467C104.908 27.2467 105.586 26.8338 105.586 26.0078C105.586 25.6962 105.485 25.439 105.282 25.2365C105.079 25.0339 104.799 24.8547 104.44 24.6988C104.082 24.5274 103.653 24.3716 103.155 24.2313C102.672 24.0911 102.142 23.9352 101.565 23.7638C100.802 23.53 100.139 23.2807 99.5784 23.0158C99.0173 22.7353 98.5498 22.4158 98.1758 22.0574C97.8174 21.699 97.5447 21.286 97.3577 20.8185C97.1863 20.351 97.1006 19.8056 97.1006 19.1822C97.1006 18.3095 97.2642 17.5381 97.5914 16.868C97.9187 16.1979 98.3628 15.6369 98.9238 15.185C99.4848 14.7175 100.132 14.3669 100.864 14.1331C101.612 13.8993 102.399 13.7825 103.225 13.7825C103.802 13.7825 104.37 13.837 104.931 13.9461C105.492 14.0552 106.03 14.1954 106.544 14.3669C107.059 14.5383 107.534 14.7331 107.97 14.9512C108.422 15.1694 108.835 15.3876 109.209 15.6058L107.526 18.7848Z" fill="#7D7D7D"/>
<path d="M110.991 22.0808C110.991 21.0834 111.178 20.0939 111.552 19.1121C111.926 18.1147 112.471 17.2265 113.188 16.4473C113.905 15.6681 114.778 15.037 115.806 14.5539C116.835 14.0708 118.004 13.8292 119.313 13.8292C120.871 13.8292 122.219 14.1643 123.357 14.8344C124.51 15.5045 125.367 16.3772 125.928 17.4524L122.983 19.5095C122.796 19.0731 122.554 18.7147 122.258 18.4342C121.978 18.1381 121.666 17.9043 121.323 17.7329C120.98 17.5459 120.63 17.4213 120.271 17.3589C119.913 17.281 119.562 17.242 119.219 17.242C118.487 17.242 117.848 17.3901 117.302 17.6862C116.757 17.9823 116.305 18.3641 115.947 18.8316C115.588 19.2991 115.323 19.8289 115.152 20.4211C114.98 21.0133 114.895 21.6133 114.895 22.221C114.895 22.8755 114.996 23.5067 115.199 24.1144C115.401 24.7222 115.69 25.2598 116.064 25.7273C116.453 26.1949 116.913 26.5689 117.443 26.8494C117.988 27.1143 118.596 27.2467 119.266 27.2467C119.609 27.2467 119.959 27.2078 120.318 27.1299C120.692 27.0364 121.042 26.9039 121.37 26.7325C121.713 26.5455 122.024 26.3117 122.305 26.0312C122.585 25.7351 122.811 25.3767 122.983 24.9559L126.115 26.8026C125.866 27.4104 125.492 27.9558 124.993 28.4389C124.51 28.922 123.949 29.3272 123.31 29.6544C122.671 29.9817 121.993 30.231 121.276 30.4024C120.559 30.5739 119.858 30.6596 119.172 30.6596C117.973 30.6596 116.866 30.418 115.853 29.9349C114.856 29.4362 113.991 28.7817 113.258 27.9714C112.542 27.161 111.981 26.2416 111.575 25.2131C111.186 24.1846 110.991 23.1405 110.991 22.0808Z" fill="#7D7D7D"/>
<path d="M135.107 30.6596C133.876 30.6596 132.754 30.418 131.741 29.9349C130.728 29.4518 129.863 28.8207 129.146 28.0415C128.43 27.2467 127.869 26.3429 127.463 25.33C127.074 24.317 126.879 23.2729 126.879 22.1976C126.879 21.1068 127.082 20.0549 127.487 19.042C127.908 18.029 128.484 17.1407 129.217 16.3772C129.965 15.598 130.845 14.9824 131.858 14.5305C132.871 14.063 133.977 13.8292 135.177 13.8292C136.408 13.8292 137.53 14.0708 138.543 14.5539C139.556 15.037 140.421 15.6759 141.138 16.4707C141.855 17.2654 142.408 18.1693 142.798 19.1822C143.187 20.1951 143.382 21.2237 143.382 22.2678C143.382 23.3586 143.172 24.4105 142.751 25.4235C142.346 26.4364 141.777 27.3325 141.045 28.1116C140.312 28.8752 139.439 29.4908 138.427 29.9583C137.414 30.4258 136.307 30.6596 135.107 30.6596ZM130.783 22.2444C130.783 22.8833 130.876 23.5067 131.063 24.1144C131.25 24.7066 131.523 25.2365 131.881 25.704C132.255 26.1715 132.715 26.5455 133.261 26.826C133.806 27.1065 134.429 27.2467 135.131 27.2467C135.863 27.2467 136.502 27.0987 137.047 26.8026C137.593 26.5065 138.045 26.1247 138.403 25.6572C138.762 25.1741 139.026 24.6365 139.198 24.0443C139.385 23.4365 139.478 22.821 139.478 22.1976C139.478 21.5587 139.385 20.9432 139.198 20.351C139.011 19.7432 138.73 19.2134 138.356 18.7614C137.982 18.2939 137.523 17.9277 136.977 17.6628C136.447 17.3823 135.832 17.242 135.131 17.242C134.398 17.242 133.759 17.3901 133.214 17.6862C132.684 17.9667 132.232 18.3407 131.858 18.8082C131.5 19.2757 131.227 19.8133 131.04 20.4211C130.868 21.0133 130.783 21.621 130.783 22.2444Z" fill="#7D7D7D"/>
<path d="M145.597 30.5193V13.9227H153.077C153.857 13.9227 154.574 14.0864 155.228 14.4136C155.898 14.7409 156.475 15.1694 156.958 15.6993C157.441 16.2291 157.815 16.8291 158.08 17.4992C158.36 18.1693 158.501 18.8472 158.501 19.5328C158.501 20.0471 158.438 20.5458 158.314 21.0289C158.189 21.4964 158.01 21.9405 157.776 22.3613C157.542 22.782 157.254 23.1638 156.911 23.5067C156.584 23.8339 156.21 24.1144 155.789 24.3482L159.436 30.5193H155.111L151.932 25.1663H149.431V30.5193H145.597ZM149.431 21.8236H152.937C153.389 21.8236 153.779 21.6133 154.106 21.1925C154.433 20.7562 154.597 20.2029 154.597 19.5328C154.597 18.8472 154.41 18.3017 154.036 17.8966C153.662 17.4914 153.257 17.2888 152.82 17.2888H149.431V21.8236Z" fill="#7D7D7D"/>
<path d="M172.921 27.1532V30.5193H161.257V13.9227H172.711V17.2888H165.091V20.5146H171.636V23.6236H165.091V27.1532H172.921Z" fill="#7D7D7D"/>
<path fill-rule="evenodd" clip-rule="evenodd" d="M28.0076 39.4332C16.6618 39.4332 7.53942 48.5555 7.53942 59.9013V102.389C7.53942 113.735 16.6618 122.857 28.0076 122.857H32.8656C44.2115 122.857 53.3338 113.735 53.3338 102.389V59.9013C53.3338 48.5555 44.2115 39.4332 32.8656 39.4332H28.0076ZM6.10352e-05 59.9013C6.10352e-05 44.3916 12.4979 31.8938 28.0076 31.8938H32.8656C48.3753 31.8938 60.8732 44.3916 60.8732 59.9013V102.389C60.8732 117.899 48.3753 130.396 32.8656 130.396H28.0076C12.4979 130.396 6.10352e-05 117.899 6.10352e-05 102.389V59.9013Z" fill="white"/>
<path fill-rule="evenodd" clip-rule="evenodd" d="M28.0076 35.6635H32.8656C46.2934 35.6635 57.1035 46.4735 57.1035 59.9013V102.389C57.1035 115.817 46.2934 126.627 32.8656 126.627H28.0076C14.5798 126.627 3.76971 115.817 3.76971 102.389V59.9013C3.76971 46.4735 14.5798 35.6635 28.0076 35.6635Z" fill="#038141"/>
<path d="M26.2978 60.3868H34.5754L49.061 103.677H39.6649L36.5888 93.9824H24.2285L21.2083 103.677H11.8122L26.2978 60.3868ZM35.0787 87.0925L30.4366 71.7886L25.6826 87.0925H35.0787Z" fill="white"/>
</g>
<defs>
<clipPath id="clip0_12818_311">
<rect width="240" height="130" fill="white" transform="translate(0 0.875)"/>
</clipPath>
</defs>
</svg>