<svg xmlns:xlink="http://www.w3.org/1999/xlink" xmlns="http://www.w3.org/2000/svg" viewBox="0 0 32 32" class="jow_prod__sc-d1d7fdb0-0 ljwnNe jow_prod__sc-1f31b3ae-0 bZnYUY" width="16" height="16" focusable="false" role="img" aria-hidden="true" aria-label="star-fill-32" aria-labelledby="star-fill-32"><path d="m28.378 11.034-7.934-1.153-3.547-7.19a1 1 0 0 0-.453-.454 1.004 1.004 0 0 0-1.341.454l-3.547 7.19-7.934 1.153a.998.998 0 0 0-.553 1.707l5.74 5.596-1.356 7.904a.998.998 0 0 0 1.45 1.053L16 23.562l7.097 3.732a.999.999 0 0 0 1.45-1.053l-1.357-7.904 5.741-5.596a1 1 0 0 0 .29-.572.996.996 0 0 0-.843-1.135" fill="#F44831"></path></svg>